<?xml version="1.0" encoding="UTF-8"?>
<!-- Created with Inkscape (http://www.inkscape.org/) -->
<svg width="196.89mm" height="30.519mm" version="1.1" viewBox="0 0 196.89 30.519" xml:space="preserve" xmlns="http://www.w3.org/2000/svg"><g transform="translate(-12.215 -91.695)"><g transform="matrix(-.92197 0 0 .92197 43.108 88.929)"><path d="m7.042 26c0.33 0 0.651 0.121 0.963 0.331 1.368-8.106 20.362-8.248 21.755-0.29 1.666 0.412 3.08 4.378 3.748 9.959h-31c0.793-5.899 2.522-10 4.534-10z" fill="#292f33"/><path d="m7.043 23.688c3.923-11.155-0.535-20.688 10.465-20.688s8.736 8.173 13.193 19.125c1.119 2.75-1.443 5.908-1.443 5.908s-2.612-4.756-4.75-5.846c-0.591 3.277-1.75 6.938-1.75 6.938s-2.581-2.965-5.587-5.587c-0.879 1.009-2.065 2.183-3.663 3.462-0.349-1.048-0.943-2.339-1.568-3.576-1.468 2.238-3.182 4.951-3.182 4.951s-2.507-2.435-1.715-4.687z" fill="#e1e8ed"/><path d="m11.507 5c-4.36 3.059-5.542 2.16-7.812 3.562-2.125 1.312-2 4.938-0.125 8.062 0.579-2.661-0.5-3.149 6.938-3.149 5 0 7.928 0.289 7-1-0.927-1.289-10.027 0.459-6.001-7.475z" fill="#ffcc4d"/><path d="m16.535 7.517a1.4835 1.4835 0 1 1-2.967 0c0-0.157 0.031-0.305 0.076-0.446h2.816c0.044 0.141 0.075 0.289 0.075 0.446z" fill="#292f33"/></g><path d="m55.429 96.462h2.7327v7.5153c0.02316 1.0052 1.9884-3.1233 8.4589-2.6588 3.8137 0.27376 6.9078 2.3956 8.6475 5.9303 0.77369 1.572 0.83494 2.1105 0.93918 8.2575l0.11155 6.5759h-3.1267l-0.0078-6.0635c-0.0078-6.6799-0.26639-7.8026-2.2494-9.7835-3.9723-3.968-12.773-1.2937-12.773 3.7452v12.102h-2.7327zm32.864 24.973c-7.3285-2.5313-9.4788-11.789-3.994-17.196 2.7415-2.7025 7.0636-3.7087 10.717-2.4951 3.0338 1.0076 5.9361 4.2236 6.717 7.4427 0.22318 0.92006 0.19603 0.93939-1.3192 0.93939-1.4194 0-1.5646-0.0795-1.7587-0.96359-0.11646-0.52997-0.6815-1.5336-1.2558-2.2303-2.9879-3.6248-8.3532-3.6602-11.5-0.0759-3.7479 4.2687-0.90439 11.534 4.7259 12.075 3.5033 0.33662 6.8146-1.5547 7.88-4.5009 0.42666-1.1799 0.51196-1.2302 2.0843-1.2302h1.6394v8.8817h-3.0744v-3.0787l-1.4223 1.0303c-2.7683 2.0054-6.2106 2.5164-9.439 1.4013zm23.46-0.30715c-1.1391-0.59508-2.2145-1.5058-2.8572-2.4196l-1.0306-1.4654-0.10287-7.9992-0.10287-7.9992h2.7193l0.10975 7.2591c0.0965 6.3873 0.18703 7.3868 0.7538 8.323 1.3119 2.1669 4.1003 2.8268 6.2939 1.4894 1.8975-1.1568 2.1144-2.189 2.1144-10.058v-7.0138h3.0744v15.111l1.3262 1.3262c1.1364 1.1364 1.5397 1.326 2.8182 1.325 0.89324-7.5e-4 1.9458-0.27794 2.6228-0.69068 1.8975-1.1568 2.1145-2.189 2.1145-10.058v-7.0138h3.1403l-0.12718 7.6007c-0.11762 7.0303-0.18345 7.7071-0.87704 9.0194-1.3552 2.5642-4.0903 4.2177-6.9765 4.2177-1.3608 0-4.5943-1.5088-5.154-2.405-0.35435-0.56742-0.47799-0.53069-1.6819 0.49982-2.4531 2.0997-5.3364 2.435-8.1772 0.95096zm28.906-9.4646 2.784-0.17082c2.129-0.13061 2.9673-0.33156 3.563-0.85399 0.42843-0.37578 2.9236-2.6432 5.5448-5.0386l4.7658-4.3554h4.3759l-9.061 8.7765c0.0646 0.22399 1.9706 2.9501 4.2352 6.0581 2.2646 3.108 4.1175 5.8964 4.1175 6.0032-1.1115 0.2587-2.3845 0.0672-3.5334 0l-3.3348-4.7429c-1.8341-2.5146-3.4863-4.7236-3.6715-4.9087-0.22122-0.22124-0.86911 0.0456-1.8888 0.77794-1.1008 0.79052-2.0525 1.1627-3.2726 1.28l-1.7205 0.16532v7.4284h-3.0922zm30.302 9.7927c-7.3482-2.6232-9.4793-11.81-3.994-17.217 2.7415-2.7025 6.7536-3.7368 10.741-2.4352 2.4388 0.79602 4.7263 2.908 5.7651 4.983 0.96696 1.9315 1.4618 4.2699 1.0076 6.4136h-11.54v-3.0744h8.6141c0.14785-1.0158-1.8901-6.0236-7.2798-6.0517-5.7898 7e-3 -9.3248 6.3916-6.3129 11.334 1.3801 2.2647 3.6505 3.3879 5.9527 3.5278 2.233 0.13571 4.603-0.80741 6.1454-2.6972l3.4643 0.0523c-3.5724 6.4426-9.9384 6.1295-12.563 5.1647zm19.743-2.4483h12.34c2.5227 0 3.5332-1.5077 3.5332-3.0414 0-1.5735-0.93229-3.027-3.5332-3.027-2.5868 0-5.4561-4e-3 -8.0429-4e-3 -4.6241 0-5.4815-3.4744-5.4815-5.8782 0-1.5964 0.6723-5.6961 5.4815-5.6961 4.261 0 8.5228-0.1167 12.783-0.1167v2.6938l-12.783 0.19467c-2.0742 0-2.8729 1.8356-2.8738 2.9244-1e-3 1.4732 0.83391 2.9336 2.8738 2.9336h8.0429c3.756 0 5.9912 2.9894 6.0583 5.9755 0.0686 3.0538-1.8869 6.2378-6.0583 6.2378h-12.34zm-50.045-22.375h2.9036v11.785h-3.0906z" fill="#292f33" stroke-width="1.2911"/></g></svg>
